<svg width="156" height="46" viewBox="0 0 156 46" fill="none" xmlns="http://www.w3.org/2000/svg">
<path d="M20.9788 16.4413C20.2134 16.5362 19.3559 16.5849 18.4064 16.5875C17.4817 16.5582 16.3214 16.4862 14.9255 16.3714L14.1886 25.0547L20.3968 24.2851L20.1066 27.5161L13.8983 28.2857L12.436 44.7012L6.31279 45.4602L8.91475 16.2962C6.96926 16.6237 5.64497 17.5507 4.94189 19.077C4.26715 20.5999 4.11252 22.8354 4.478 25.7836C4.54478 26.3222 4.63111 26.7864 4.737 27.1763C4.87125 27.5626 5.04626 27.9295 5.26203 28.277C5.33279 28.3833 5.37168 28.4649 5.37871 28.5216C5.41057 28.5464 5.42826 28.573 5.43177 28.6013C3.84427 28.7981 2.64157 28.6162 1.82369 28.0556C1.03064 27.4631 0.546264 26.4581 0.370553 25.0407C-0.0476416 21.6672 0.881761 18.8319 3.15876 16.5348C5.46059 14.2058 8.90772 12.7566 13.5001 12.1873C13.7553 12.1557 14.0689 12.1312 14.4409 12.1139C14.8129 12.0965 15.4295 12.0777 16.2904 12.0573C17.4384 12.0301 18.3136 12.008 18.9159 11.9909C19.5431 11.9419 20.1118 11.8858 20.6221 11.8226C21.3875 11.7277 22.0768 11.599 22.6899 11.4367C23.303 11.2743 23.8683 11.0747 24.3859 10.8379C24.3645 10.8981 24.2915 11.3533 24.1666 12.2035C24.0417 13.0537 23.8532 13.7391 23.6011 14.2597C23.349 14.7803 23.0014 15.2263 22.5581 15.5979C22.1397 15.9376 21.6132 16.2188 20.9788 16.4413Z" fill="#C6E3E8"/>
<path d="M29.2542 15.2859C29.3702 16.2214 29.1284 17.0573 28.5289 17.7937C27.9577 18.5265 27.2043 18.9509 26.2688 19.0669C25.3333 19.1829 24.4992 18.9553 23.7663 18.3841C23.0335 17.8129 22.6091 17.0596 22.4931 16.1241C22.3772 15.1886 22.6048 14.3544 23.176 13.6216C23.7436 12.8604 24.4952 12.4218 25.4307 12.3058C26.3662 12.1899 27.2021 12.4317 27.9385 13.0312C28.6996 13.5989 29.1382 14.3504 29.2542 15.2859ZM21.1468 38.6993C21.1011 38.3307 21.0785 37.9162 21.079 37.4556C21.0759 36.9666 21.0977 36.4458 21.1444 35.8931L22.3438 21.885L28.467 21.1259L27.1976 35.9631C27.1726 36.2252 27.1599 36.4715 27.1597 36.7018C27.1559 36.9037 27.1681 37.1181 27.1962 37.3449C27.2665 37.9118 27.445 38.3071 27.7318 38.5306C28.0434 38.7222 28.511 38.7794 29.1347 38.7021C29.9285 38.6037 30.6375 38.1704 31.2619 37.4021C31.8827 36.6056 32.2947 35.6334 32.4978 34.4857L34.2838 34.2643C33.6964 36.9564 32.7199 39.0636 31.3543 40.5857C29.9887 42.1078 28.3137 42.9919 26.3293 43.2379C24.9119 43.4136 23.7376 43.113 22.8066 42.3361C21.9004 41.5274 21.3471 40.3151 21.1468 38.6993Z" fill="#C6E3E8"/>
<path d="M42.8612 36.3096C42.7979 35.7994 42.7755 35.1545 42.794 34.375C42.8409 33.5921 42.9591 32.3397 43.1486 30.618C43.3452 28.9529 43.4562 27.759 43.4818 27.0362C43.5073 26.3135 43.4902 25.7111 43.4305 25.2292C43.3426 24.5205 43.1483 23.9977 42.8475 23.6608C42.5466 23.3239 42.1411 23.1871 41.6308 23.2503C40.9505 23.3347 40.3566 23.7681 39.8491 24.5506C39.3665 25.3012 39.0165 26.3089 38.7991 27.5736L37.5996 41.5817L31.4764 42.3408L33.3481 20.5208L39.4713 19.7617L39.2777 22.0309C39.888 21.1493 40.5796 20.4591 41.3525 19.9603C42.1254 19.4615 42.9938 19.1524 43.9576 19.0329C45.4601 18.8466 46.6733 19.1136 47.5973 19.8338C48.5213 20.554 49.08 21.6936 49.2733 23.2528C49.3541 23.9048 49.3657 24.6949 49.3081 25.6232C49.2753 26.5195 49.1463 27.9171 48.9211 29.816C48.7318 31.3074 48.6174 32.3579 48.5778 32.9672C48.5382 33.5766 48.543 34.0797 48.5922 34.4766C48.666 35.0719 48.864 35.5079 49.1861 35.7846C49.5047 36.0329 49.9475 36.122 50.5145 36.0517C51.2232 35.9638 51.8028 35.6473 52.2533 35.1021C52.7039 34.557 53.1603 33.4786 53.6225 31.8669L55.4084 31.6455C54.8281 34.3944 53.9668 36.5016 52.8244 37.9673C51.7104 39.4295 50.2604 40.2712 48.4745 40.4926C46.887 40.6894 45.6011 40.4171 44.6169 39.6756C43.6291 38.9057 43.0439 37.7837 42.8612 36.3096Z" fill="#C6E3E8"/>
<path d="M59.4938 31.5708C59.6309 32.6764 59.8904 33.4934 60.2726 34.0217C60.6512 34.5216 61.2373 34.7224 62.0311 34.624C62.7398 34.5362 63.3939 34.1241 63.9934 33.3877C64.5895 32.623 64.9518 31.7146 65.0804 30.6624L65.054 30.4498L65.9305 20.4539C65.7892 20.0108 65.5469 19.6811 65.2034 19.4646C64.8848 19.2163 64.4845 19.122 64.0026 19.1817C62.4434 19.375 61.216 20.8512 60.3204 23.6104C59.453 26.366 59.1775 29.0195 59.4938 31.5708ZM66.0707 18.4504L66.0918 18.6205L66.963 8.58204L73.1509 6.95143L71.1073 30.5197C71.0823 30.7819 71.0696 31.0281 71.0694 31.2584C71.0656 31.4604 71.0778 31.6747 71.1059 31.9015C71.1762 32.4685 71.3547 32.8637 71.6415 33.0872C71.9531 33.2789 72.4207 33.336 73.0444 33.2587C73.7814 33.1674 74.4072 32.7588 74.9217 32.033C75.4362 31.3072 75.8039 30.3261 76.0248 29.0898L77.8108 28.8684C77.2447 31.5003 76.3321 33.542 75.0728 34.9934C73.8419 36.4412 72.2201 37.2899 70.2073 37.5394C69.0451 37.6835 68.0567 37.4894 67.2424 36.9571C66.4528 36.393 65.901 35.5403 65.5868 34.3991C64.898 35.8085 64.0696 36.9043 63.1015 37.6863C62.1335 38.4684 61.0258 38.9367 59.7785 39.0913C58.0209 39.3092 56.558 38.8861 55.3899 37.822C54.2501 36.7543 53.5449 35.1291 53.2743 32.9463C53.0775 31.3588 53.1129 29.6706 53.3804 27.8816C53.648 26.0926 54.1191 24.4367 54.7938 22.9138C55.6354 21.1113 56.6962 19.6845 57.9764 18.6335C59.253 17.5541 60.7134 16.9126 62.3576 16.7087C63.4631 16.5717 64.3382 16.6647 64.9827 16.9878C65.6237 17.2825 65.9864 17.77 66.0707 18.4504Z" fill="#C6E3E8"/>
<path d="M82.3537 14.8775C82.178 13.4601 82.47 11.9847 83.2298 10.4513C84.018 8.91442 85.1922 7.47358 86.7525 6.1288C88.0823 5.01408 89.5377 4.09967 91.1186 3.38558C92.7244 2.63962 94.321 2.16824 95.9085 1.97144L97.6094 1.76059L94.9737 32.7422C94.6687 36.5507 93.7251 39.3878 92.143 41.2533C90.5609 43.1189 88.2107 44.245 85.0924 44.6316C83.1363 44.8741 81.5246 44.527 80.2571 43.5903C79.018 42.6501 78.2842 41.2587 78.0558 39.4161C77.8555 37.8002 78.1705 36.394 79.0008 35.1972C79.8276 33.9722 81.0064 33.2648 82.5372 33.075C84.068 32.8852 85.1751 32.9926 85.8585 33.3972C86.5384 33.7735 86.9381 34.4436 87.0575 35.4074C87.0857 35.6342 87.0889 35.8928 87.0674 36.1833C87.0777 36.4987 87.0596 36.8176 87.0133 37.1399C86.4821 36.8028 86.0218 36.572 85.6322 36.4476C85.2425 36.3232 84.8068 36.2909 84.3249 36.3506C83.4461 36.4596 82.7601 36.8468 82.2669 37.5124C81.8021 38.1745 81.6259 38.9591 81.7384 39.8663C81.8508 40.7734 82.2098 41.4629 82.8151 41.9348C83.4489 42.4031 84.1768 42.5863 84.9989 42.4844C86.1045 42.3473 86.8915 41.8468 87.3601 40.9828C87.8605 40.1436 88.2039 38.7338 88.3901 36.7534L91.3024 5.56476C89.4731 6.59748 88.1342 7.98678 87.2856 9.73266C86.4619 11.4467 86.1871 13.4093 86.4612 15.6204C86.5279 16.159 86.6143 16.6233 86.7202 17.0131C86.8544 17.3995 87.0294 17.7663 87.2452 18.1138C87.316 18.2202 87.3548 18.3017 87.3619 18.3584C87.3937 18.3832 87.4114 18.4098 87.4149 18.4382C85.8274 18.635 84.6248 18.453 83.8069 17.8924C83.0138 17.2999 82.5294 16.2949 82.3537 14.8775Z" fill="#C6E3E8"/>
<path d="M98.3755 27.3984C98.1752 25.7826 98.2178 24.0359 98.5031 22.1583C98.8168 20.2773 99.3394 18.5718 100.071 17.0419C100.912 15.2394 102.017 13.8215 103.386 12.7883C104.751 11.7268 106.341 11.0835 108.155 10.8586C109.97 10.6337 111.401 11.032 112.448 12.0535C113.496 13.075 114.161 14.7196 114.442 16.9875C114.502 17.0088 114.562 17.0301 114.622 17.0514C114.707 17.0409 114.807 17.0286 114.92 17.0145C115.799 16.9056 116.818 16.5346 117.977 15.9016C119.136 15.2685 120.195 14.5185 121.152 13.6514L121.677 14.7521C120.989 15.7009 120.017 16.5698 118.762 17.3586C117.535 18.1439 116.144 18.7625 114.588 19.2145C114.722 23.0836 114 26.3107 112.421 28.8955C110.841 31.4804 108.705 32.9397 106.012 33.2736C103.801 33.5477 102.044 33.1898 100.741 32.2C99.4381 31.2101 98.6497 29.6096 98.3755 27.3984ZM108.817 13.4103C107.456 13.579 106.337 15.1138 105.459 18.0147C104.609 20.9121 104.337 23.5939 104.643 26.0602C104.808 27.3926 105.062 28.2822 105.405 28.7289C105.777 29.1722 106.388 29.3411 107.238 29.2357C108.287 29.1057 109.174 28.1322 109.899 26.3153C110.652 24.495 111.044 22.3164 111.075 19.7796C110.667 19.7437 110.347 19.5963 110.113 19.3375C109.904 19.0467 109.768 18.6462 109.705 18.1359C109.638 17.5973 109.694 17.1155 109.871 16.6905C110.049 16.2655 110.338 15.9275 110.739 15.6763C110.57 14.7762 110.335 14.1577 110.034 13.8208C109.761 13.4804 109.356 13.3436 108.817 13.4103Z" fill="#C6E3E8"/>
<path d="M124.862 31.0231C122.963 31.2586 121.431 30.9736 120.266 30.1681C119.126 29.3308 118.449 28.0475 118.234 26.3182C118.185 25.9214 118.164 25.521 118.172 25.1171C118.179 24.7132 118.199 24.2933 118.232 23.8575L120.141 1.9898L126.328 0.359186L125.473 10.1797C126.101 9.67018 126.659 9.29873 127.149 9.06538C127.663 8.80017 128.217 8.63067 128.813 8.55687C130.485 8.34953 131.808 8.80439 132.781 9.92146C133.779 11.0067 134.429 12.7682 134.732 15.2062C134.939 16.8787 134.897 18.6254 134.604 20.4463C134.312 22.2671 133.793 23.8858 133.047 25.3023C132.188 26.9631 131.071 28.2818 129.695 29.2582C128.316 30.2064 126.705 30.7947 124.862 31.0231ZM124.236 24.9266C124.317 25.5786 124.563 26.0518 124.973 26.3463C125.409 26.609 125.995 26.6946 126.732 26.6032C128.008 26.4451 129.017 25.183 129.76 22.817C130.503 20.451 130.722 18.0348 130.416 15.5685C130.268 14.3779 129.934 13.4262 129.414 12.7135C128.923 11.9973 128.336 11.6814 127.656 11.7657C127.203 11.822 126.729 11.9526 126.237 12.1576C125.744 12.3626 125.413 12.5908 125.242 12.8421L124.242 23.9328C124.235 24.1064 124.228 24.28 124.221 24.4536C124.213 24.6272 124.218 24.7848 124.236 24.9266Z" fill="#C6E3E8"/>
<path d="M150.541 20.3704C150.583 20.7105 150.606 21.01 150.609 21.2686C150.613 21.5272 150.6 21.7735 150.571 22.0073C151.096 21.5968 151.605 21.174 152.098 20.7387C152.591 20.3034 153.015 19.891 153.369 19.5016L155.155 19.2802C154.403 20.4097 153.543 21.4806 152.574 22.493C151.631 23.4734 150.542 24.4431 149.308 25.4021C148.645 26.319 147.746 27.0781 146.612 27.6793C145.474 28.2521 144.253 28.6194 142.949 28.781C141.049 29.0165 139.469 28.6942 138.209 27.8142C136.973 26.9024 136.259 25.6669 136.066 24.1078C135.957 23.229 136.071 22.4089 136.408 21.6474C136.742 20.8577 137.216 20.2664 137.829 19.8738C138.579 18.0251 139.243 16.0717 139.823 14.0138C140.427 11.924 140.986 9.46565 141.499 6.63879L147.687 5.00818C148.035 7.12375 148.375 9.05331 148.707 10.7968C149.038 12.5404 149.417 14.4363 149.844 16.4847C150.076 17.6647 150.237 18.494 150.325 18.9724C150.413 19.4508 150.485 19.9168 150.541 20.3704ZM142.323 11.1996C142.099 12.4075 141.797 13.6827 141.416 15.0252C141.06 16.3358 140.547 17.8818 139.875 19.6633C140.205 19.7664 140.47 19.9349 140.672 20.169C140.874 20.403 140.996 20.6902 141.038 21.0303C141.105 21.5689 140.98 22.0737 140.664 22.5446C140.349 23.0155 139.935 23.2826 139.425 23.3459C139.142 23.381 138.896 23.3684 138.687 23.3079C138.474 23.2191 138.315 23.0949 138.209 22.9354C138.339 23.9843 138.632 24.7251 139.089 25.1578C139.57 25.5587 140.264 25.7029 141.171 25.5904C142.334 25.4463 143.199 24.9937 143.766 24.2325C144.334 23.4713 144.539 22.4529 144.381 21.1772C144.331 20.7804 144.268 20.3852 144.191 19.9919C144.109 19.5702 143.967 18.8827 143.762 17.9294C143.455 16.6146 143.196 15.4522 142.984 14.4422C142.773 13.4322 142.553 12.3513 142.323 11.1996Z" fill="#C6E3E8"/>
</svg>
