<svg width="125" height="18" viewBox="0 0 125 18" fill="none" xmlns="http://www.w3.org/2000/svg">
<path d="M5.74118 1.4325C5.22518 1.4325 4.81718 1.5765 4.51718 1.8645C4.21718 2.1405 4.00118 2.5785 3.86918 3.1785L3.70718 3.9345H6.47918L6.19118 5.3565H3.47318L1.83518 13.4745H0.107178L1.74518 5.3565H0.107178L0.377178 3.9345H2.03318L2.21318 3.0345C2.40518 2.0625 2.79518 1.3185 3.38318 0.802498C3.98318 0.274498 4.76918 0.010498 5.74118 0.010498C6.13718 0.010498 6.50918 0.0644981 6.85718 0.172498C7.21718 0.268498 7.51118 0.412498 7.73918 0.604498L7.01918 1.8825C6.68318 1.5825 6.25718 1.4325 5.74118 1.4325Z" fill="white"/>
<path d="M10.5423 13.5825C9.64226 13.5825 8.85626 13.4145 8.18426 13.0785C7.51226 12.7305 6.99026 12.2445 6.61826 11.6205C6.24626 10.9965 6.06026 10.2765 6.06026 9.4605C6.06026 8.3925 6.30026 7.4325 6.78026 6.5805C7.26026 5.7285 7.92626 5.0625 8.77826 4.5825C9.63026 4.0905 10.5903 3.8445 11.6583 3.8445C12.5583 3.8445 13.3443 4.0125 14.0163 4.3485C14.6883 4.6845 15.2043 5.1645 15.5643 5.7885C15.9363 6.4005 16.1223 7.1205 16.1223 7.9485C16.1223 9.0165 15.8823 9.9825 15.4023 10.8465C14.9223 11.6985 14.2563 12.3705 13.4043 12.8625C12.5643 13.3425 11.6103 13.5825 10.5423 13.5825ZM10.6503 12.0705C11.3583 12.0705 11.9943 11.9025 12.5583 11.5665C13.1343 11.2185 13.5783 10.7385 13.8903 10.1265C14.2143 9.5145 14.3763 8.8185 14.3763 8.0385C14.3763 7.1865 14.1303 6.5265 13.6383 6.0585C13.1463 5.5905 12.4443 5.3565 11.5323 5.3565C10.8243 5.3565 10.1883 5.5305 9.62426 5.8785C9.06026 6.2145 8.61626 6.6885 8.29226 7.3005C7.96826 7.9125 7.80626 8.6085 7.80626 9.3885C7.80626 10.2285 8.05226 10.8885 8.54426 11.3685C9.04826 11.8365 9.75026 12.0705 10.6503 12.0705Z" fill="white"/>
<path d="M20.78 5.3565C21.2 4.8285 21.716 4.4445 22.328 4.2045C22.94 3.9645 23.684 3.8445 24.56 3.8445L24.236 5.5185C24.128 5.5065 23.978 5.5005 23.786 5.5005C21.806 5.5005 20.606 6.5685 20.186 8.7045L19.232 13.4745H17.504L19.394 3.9345H21.05L20.78 5.3565Z" fill="white"/>
<path d="M31.3948 9.2445V9.3525C31.3948 10.2405 31.6468 10.9185 32.1508 11.3865C32.6548 11.8425 33.4108 12.0705 34.4188 12.0705C35.0068 12.0705 35.5588 11.9745 36.0748 11.7825C36.5908 11.5785 37.0228 11.3085 37.3708 10.9725L38.1088 12.2145C37.6408 12.6465 37.0708 12.9825 36.3988 13.2225C35.7268 13.4625 35.0188 13.5825 34.2748 13.5825C33.3388 13.5825 32.5288 13.4145 31.8448 13.0785C31.1608 12.7425 30.6328 12.2625 30.2608 11.6385C29.8888 11.0145 29.7028 10.2825 29.7028 9.4425C29.7028 8.3745 29.9308 7.4145 30.3868 6.5625C30.8548 5.7105 31.4968 5.0445 32.3128 4.5645C33.1408 4.0845 34.0648 3.8445 35.0848 3.8445C36.3808 3.8445 37.4128 4.2165 38.1808 4.9605C38.9608 5.6925 39.3508 6.6945 39.3508 7.9665C39.3508 8.3505 39.3088 8.7765 39.2248 9.2445H31.3948ZM35.0128 5.2845C34.1608 5.2845 33.4288 5.5245 32.8168 6.0045C32.2048 6.4845 31.7908 7.1445 31.5748 7.9845H37.7308C37.7788 7.1325 37.5508 6.4725 37.0468 6.0045C36.5548 5.5245 35.8768 5.2845 35.0128 5.2845Z" fill="white"/>
<path d="M54.2967 3.8445C55.3767 3.8445 56.2167 4.1205 56.8167 4.6725C57.4287 5.2125 57.7347 5.9865 57.7347 6.9945C57.7347 7.2705 57.6927 7.6485 57.6087 8.1285L56.5467 13.4745H54.8187L55.8807 8.1285C55.9407 7.7925 55.9707 7.5165 55.9707 7.3005C55.9707 6.6765 55.7967 6.2025 55.4487 5.8785C55.1007 5.5545 54.5727 5.3925 53.8647 5.3925C52.9767 5.3925 52.2447 5.6445 51.6687 6.1485C51.1047 6.6405 50.7207 7.3845 50.5167 8.3805L49.4907 13.4745H47.7627L48.8427 8.1285C48.9027 7.8045 48.9327 7.5345 48.9327 7.3185C48.9327 6.6945 48.7527 6.2205 48.3927 5.8965C48.0447 5.5605 47.5167 5.3925 46.8087 5.3925C45.9207 5.3925 45.1887 5.6445 44.6127 6.1485C44.0487 6.6525 43.6647 7.4145 43.4607 8.4345L42.4527 13.4745H40.7247L42.6147 3.9345H44.2707L44.0367 5.1225C44.8767 4.2705 45.9807 3.8445 47.3487 3.8445C48.0927 3.8445 48.7287 3.9885 49.2567 4.2765C49.7847 4.5645 50.1687 4.9845 50.4087 5.5365C51.3807 4.4085 52.6767 3.8445 54.2967 3.8445Z" fill="white"/>
<path d="M66.4223 3.8445C67.2383 3.8445 67.9643 4.0125 68.6003 4.3485C69.2363 4.6725 69.7343 5.1465 70.0943 5.7705C70.4543 6.3825 70.6343 7.1085 70.6343 7.9485C70.6343 9.0285 70.4003 9.9945 69.9323 10.8465C69.4643 11.6985 68.8163 12.3705 67.9883 12.8625C67.1723 13.3425 66.2543 13.5825 65.2343 13.5825C64.4183 13.5825 63.7163 13.4385 63.1283 13.1505C62.5403 12.8505 62.0903 12.4185 61.7783 11.8545L60.7703 16.9665H59.0423L61.6343 3.9345H63.2903L63.0563 5.1225C63.9443 4.2705 65.0663 3.8445 66.4223 3.8445ZM65.1623 12.0705C65.8703 12.0705 66.5063 11.9025 67.0703 11.5665C67.6343 11.2185 68.0783 10.7385 68.4023 10.1265C68.7263 9.5145 68.8883 8.8185 68.8883 8.0385C68.8883 7.1865 68.6423 6.5265 68.1503 6.0585C67.6583 5.5905 66.9563 5.3565 66.0443 5.3565C65.3363 5.3565 64.6943 5.5305 64.1183 5.8785C63.5543 6.2145 63.1103 6.6885 62.7863 7.3005C62.4743 7.9125 62.3183 8.6085 62.3183 9.3885C62.3183 10.2285 62.5643 10.8885 63.0563 11.3685C63.5603 11.8365 64.2623 12.0705 65.1623 12.0705Z" fill="white"/>
<path d="M74.6778 0.118498H76.4058L73.7418 13.4745H72.0138L74.6778 0.118498Z" fill="white"/>
<path d="M81.5051 13.5825C80.6051 13.5825 79.8191 13.4145 79.1471 13.0785C78.4752 12.7305 77.9531 12.2445 77.5811 11.6205C77.2091 10.9965 77.0231 10.2765 77.0231 9.4605C77.0231 8.3925 77.2631 7.4325 77.7431 6.5805C78.2232 5.7285 78.8892 5.0625 79.7411 4.5825C80.5931 4.0905 81.5531 3.8445 82.6211 3.8445C83.5211 3.8445 84.3072 4.0125 84.9791 4.3485C85.6511 4.6845 86.1671 5.1645 86.5271 5.7885C86.8991 6.4005 87.0851 7.1205 87.0851 7.9485C87.0851 9.0165 86.8452 9.9825 86.3652 10.8465C85.8851 11.6985 85.2191 12.3705 84.3671 12.8625C83.5272 13.3425 82.5732 13.5825 81.5051 13.5825ZM81.6131 12.0705C82.3211 12.0705 82.9571 11.9025 83.5211 11.5665C84.0971 11.2185 84.5412 10.7385 84.8531 10.1265C85.1771 9.5145 85.3391 8.8185 85.3391 8.0385C85.3391 7.1865 85.0931 6.5265 84.6012 6.0585C84.1092 5.5905 83.4072 5.3565 82.4951 5.3565C81.7871 5.3565 81.1511 5.5305 80.5871 5.8785C80.0231 6.2145 79.5791 6.6885 79.2551 7.3005C78.9312 7.9125 78.7691 8.6085 78.7691 9.3885C78.7691 10.2285 79.0152 10.8885 79.5071 11.3685C80.0111 11.8365 80.7131 12.0705 81.6131 12.0705Z" fill="white"/>
<path d="M98.5353 3.9345L91.7673 14.5185C91.1553 15.4785 90.5733 16.1445 90.0213 16.5165C89.4693 16.8885 88.8153 17.0745 88.0593 17.0745C87.5913 17.0745 87.1353 16.9965 86.6913 16.8405C86.2473 16.6965 85.9053 16.4925 85.6653 16.2285L86.5653 14.9505C86.9973 15.3825 87.5373 15.5985 88.1853 15.5985C88.5933 15.5985 88.9533 15.4905 89.2653 15.2745C89.5773 15.0585 89.9013 14.6925 90.2373 14.1765L90.7233 13.4205L88.4193 3.9345H90.1473L91.9833 11.5665L96.7893 3.9345H98.5353Z" fill="white"/>
<path d="M99.6683 9.2445V9.3525C99.6683 10.2405 99.9203 10.9185 100.424 11.3865C100.928 11.8425 101.684 12.0705 102.692 12.0705C103.28 12.0705 103.832 11.9745 104.348 11.7825C104.864 11.5785 105.296 11.3085 105.644 10.9725L106.382 12.2145C105.914 12.6465 105.344 12.9825 104.672 13.2225C104 13.4625 103.292 13.5825 102.548 13.5825C101.612 13.5825 100.802 13.4145 100.118 13.0785C99.4343 12.7425 98.9063 12.2625 98.5343 11.6385C98.1623 11.0145 97.9763 10.2825 97.9763 9.4425C97.9763 8.3745 98.2043 7.4145 98.6603 6.5625C99.1283 5.7105 99.7703 5.0445 100.586 4.5645C101.414 4.0845 102.338 3.8445 103.358 3.8445C104.654 3.8445 105.686 4.2165 106.454 4.9605C107.234 5.6925 107.624 6.6945 107.624 7.9665C107.624 8.3505 107.582 8.7765 107.498 9.2445H99.6683ZM103.286 5.2845C102.434 5.2845 101.702 5.5245 101.09 6.0045C100.478 6.4845 100.064 7.1445 99.8483 7.9845H106.004C106.052 7.1325 105.824 6.4725 105.32 6.0045C104.828 5.5245 104.15 5.2845 103.286 5.2845Z" fill="white"/>
<path d="M112.274 5.3565C112.694 4.8285 113.21 4.4445 113.822 4.2045C114.434 3.9645 115.178 3.8445 116.054 3.8445L115.73 5.5185C115.622 5.5065 115.472 5.5005 115.28 5.5005C113.3 5.5005 112.1 6.5685 111.68 8.7045L110.726 13.4745H108.998L110.888 3.9345H112.544L112.274 5.3565Z" fill="white"/>
<path d="M119.334 13.5825C118.542 13.5825 117.786 13.4805 117.066 13.2765C116.358 13.0725 115.806 12.8085 115.41 12.4845L116.184 11.1165C116.556 11.4165 117.036 11.6565 117.624 11.8365C118.224 12.0045 118.848 12.0885 119.496 12.0885C120.312 12.0885 120.93 11.9685 121.35 11.7285C121.782 11.4765 121.998 11.1285 121.998 10.6845C121.998 10.3245 121.824 10.0665 121.476 9.9105C121.14 9.7545 120.612 9.5985 119.892 9.4425C119.22 9.2985 118.668 9.1545 118.236 9.0105C117.816 8.8545 117.456 8.6145 117.156 8.2905C116.856 7.9545 116.706 7.5045 116.706 6.9405C116.706 6.3165 116.88 5.7705 117.228 5.3025C117.588 4.8345 118.092 4.4745 118.74 4.2225C119.4 3.9705 120.162 3.8445 121.026 3.8445C121.662 3.8445 122.28 3.9225 122.88 4.0785C123.48 4.2345 123.972 4.4445 124.356 4.7085L123.672 6.0765C123.3 5.8245 122.868 5.6385 122.376 5.5185C121.884 5.3865 121.38 5.3205 120.864 5.3205C120.084 5.3205 119.484 5.4525 119.064 5.7165C118.644 5.9685 118.434 6.3105 118.434 6.7425C118.434 7.1265 118.608 7.4025 118.956 7.5705C119.304 7.7265 119.844 7.8825 120.576 8.0385C121.236 8.1825 121.776 8.3265 122.196 8.4705C122.616 8.6145 122.97 8.8485 123.258 9.1725C123.558 9.4965 123.708 9.9345 123.708 10.4865C123.708 11.4585 123.306 12.2205 122.502 12.7725C121.71 13.3125 120.654 13.5825 119.334 13.5825Z" fill="white"/>
</svg>
